<svg xmlns="http://www.w3.org/2000/svg" width="512" height="512" viewBox="0 0 512 512" fill="none">
<g clip-path="url(#clip0_103_2)">
<rect width="512" height="512" rx="64" fill="black"/>
<path d="M245.793 372.494H211.864L207.506 346.343C194.743 367.677 173.577 378 148.363 378C88.9095 378 50 331.546 50 255.844C50 180.142 88.9095 133 152.721 133C198.167 133 236.766 160.184 245.793 213.52H193.498C187.584 190.465 172.643 178.077 151.476 178.077C119.415 178.077 101.049 207.326 101.049 255.844C101.049 304.362 120.348 332.923 153.032 332.923C175.756 332.923 194.743 319.159 198.167 287.501H157.701V245.865H245.793V372.494Z" fill="#FFCE20"/>
<path d="M279.97 372.494V138.506H329.774V230.381H413.196V138.506H463V372.494H413.196V275.114H329.774V372.494H279.97Z" fill="#FFCE20"/>
</g>
<defs>
<clipPath id="clip0_103_2">
<rect width="512" height="512" fill="white"/>
</clipPath>
</defs>
</svg>
